<svg xmlns="http://www.w3.org/2000/svg" viewBox="0 0 760 160" fill="none">
  <defs>
    <radialGradient id="ise_bg_hd" cx="58%" cy="38%" r="80%">
      <stop offset="0%" stop-color="#1e293b"></stop>
      <stop offset="100%" stop-color="#020617"></stop>
    </radialGradient>
    <radialGradient id="ise_glow_hd" cx="50%" cy="50%" r="50%">
      <stop offset="0%" stop-color="#60a5fa" stop-opacity="0.55"></stop>
      <stop offset="100%" stop-color="#60a5fa" stop-opacity="0"></stop>
    </radialGradient>
  </defs>

  <g transform="translate(8,8)">
    <rect width="144" height="144" rx="28" fill="url(#ise_bg_hd)"></rect>
    <circle cx="115" cy="38" r="34" fill="url(#ise_glow_hd)"></circle>

    <g stroke="#60a5fa" stroke-width="1.3" stroke-opacity="0.5" fill="none" stroke-linecap="round">
      <line x1="32" y1="110" x2="56" y2="92"></line>
      <line x1="56" y1="92" x2="72" y2="78"></line>
      <line x1="72" y1="78" x2="92" y2="58"></line>
      <line x1="92" y1="58" x2="115" y2="38"></line>
      <line x1="56" y1="92" x2="48" y2="74"></line>
      <line x1="72" y1="78" x2="64" y2="64"></line>
      <line x1="92" y1="58" x2="106" y2="74"></line>
    </g>

    <path d="M 32 110 L 56 92 L 72 78 L 92 58 L 115 38" stroke="#93c5fd" stroke-width="2.2" stroke-linecap="round" stroke-linejoin="round" fill="none"></path>

    <circle cx="32" cy="110" r="5" fill="#ef4444"></circle>
    <circle cx="56" cy="92" r="3.5" fill="#e2e8f0"></circle>
    <circle cx="48" cy="74" r="3" fill="#94a3b8"></circle>
    <circle cx="72" cy="78" r="4.5" fill="#22c55e"></circle>
    <circle cx="64" cy="64" r="3" fill="#e2e8f0"></circle>
    <circle cx="92" cy="58" r="6" fill="#60a5fa"></circle>
    <circle cx="92" cy="58" r="2.2" fill="#f8fafc"></circle>
    <circle cx="106" cy="74" r="3.5" fill="#ef4444"></circle>
    <circle cx="115" cy="38" r="7" fill="#93c5fd"></circle>
    <circle cx="115" cy="38" r="2.4" fill="#f8fafc"></circle>
  </g>

  <text x="184" y="86" font-size="38" font-weight="700" fill="#f8fafc" font-family="&#39;Space Grotesk&#39;, &#39;Inter&#39;, -apple-system, BlinkMacSystemFont, &#39;Helvetica Neue&#39;, system-ui, sans-serif" letter-spacing="-1.2">Idea Stock Exchange</text>
  <text x="186" y="118" font-size="17" font-weight="500" fill="#94a3b8" font-family="&#39;Inter&#39;, -apple-system, BlinkMacSystemFont, &#39;Helvetica Neue&#39;, system-ui, sans-serif" letter-spacing="0.1">Computational Epistemology Platform</text>
</svg>